<?xml version="1.0" encoding="UTF-8" standalone="no"?><!DOCTYPE svg PUBLIC "-//W3C//DTD SVG 1.1//EN" "http://www.w3.org/Graphics/SVG/1.1/DTD/svg11.dtd"><svg width="100%" height="100%" viewBox="0 0 2084 2084" version="1.1" xmlns="http://www.w3.org/2000/svg" xmlns:xlink="http://www.w3.org/1999/xlink" xml:space="preserve" xmlns:serif="http://www.serif.com/" style="fill-rule:evenodd;clip-rule:evenodd;stroke-linecap:round;stroke-linejoin:round;stroke-miterlimit:1.5;"><g><path d="M1818.75,328.128c0,-23.573 -19.139,-42.711 -42.712,-42.711l-1468.74,-0c-23.573,-0 -42.712,19.138 -42.712,42.711l0,1427.08c0,23.573 19.139,42.712 42.712,42.712l1468.74,-0c23.573,-0 42.712,-19.139 42.712,-42.712l0,-1427.08Z" style="fill:#613928;"/><g transform="matrix(0.92562,0,0,1,-1228.97,0)"><g transform="matrix(1003.59,0,0,1003.59,2833.91,1394.11)"></g><text x="2164.52px" y="1394.11px" style="font-family:'ArialMT', 'Arial', sans-serif;font-size:1003.59px;fill:#fff;">P</text></g><path d="M1741.67,413.718c-0,-38.616 -31.352,-69.968 -69.968,-69.968l-1260.06,0c-38.617,0 -69.968,31.352 -69.968,69.968l-0,1247.56c-0,38.616 31.351,69.968 69.968,69.968l1260.06,0c38.616,0 69.968,-31.352 69.968,-69.968l-0,-1247.56Z" style="fill:none;stroke:#fff;stroke-width:31.25px;"/></g></svg>